<svg data-name="Ebene 1" xmlns="http://www.w3.org/2000/svg" width="889" height="889" viewBox="0 0 889 889"><defs><linearGradient id="a" x1="328.89" y1="488.26" x2="866.56" y2="488.26" gradientTransform="rotate(-23.34 297.084 575.21)" gradientUnits="userSpaceOnUse"><stop offset="0" stop-color="#4dd3d0"/><stop offset=".55" stop-color="#50bbdd"/><stop offset="1" stop-color="#528bc6"/></linearGradient><linearGradient id="b" x1="205.81" y1="529.9" x2="524.81" y2="529.9" gradientUnits="userSpaceOnUse"><stop offset="0" stop-color="#50bbdd"/><stop offset="1" stop-color="#528bc6"/></linearGradient></defs><path fill="none" stroke="#50bbdd" stroke-miterlimit="10" stroke-width="3" d="M196.81 227.37l118 50m27.5-176.5l46 68m-160 184h62m-159 92l183-32m-152 186l119-42m34 70l73-81m-23 205l79-144m74 104l11-104m95 114l-14-124m124 30l-43-65m-229-461l14 48"/><circle cx="538.67" cy="376.27" r="268.83" fill="url(#a)"/><path d="M705.57 587.5L524.08 445.61l-193.1 101.31c74.09 90.45 201.76 125.02 314.53 76.38a268.88 268.88 0 0060.06-35.8z" fill="#3a425b" opacity=".52"/><text transform="translate(425.67 404.98)" font-size="192.2" fill="#fff" font-family="Roboto-Bold, Roboto" font-weight="700">API</text><path fill="url(#b)" d="M205.81 446.22h319v167.37h-319z"/><text transform="translate(209.22 572.25)" font-size="129.61" fill="#7df4ee" font-family="Roboto-Bold, Roboto" font-weight="700">REST</text><circle cx="118.31" cy="447.87" r="14" fill="none" stroke="#528bc6" stroke-miterlimit="10" stroke-width="3"/><circle cx="215.31" cy="352.87" r="14" fill="none" stroke="#528bc6" stroke-miterlimit="10" stroke-width="3"/><circle cx="458.31" cy="87.87" r="14" fill="none" stroke="#528bc6" stroke-miterlimit="10" stroke-width="3"/><circle cx="184.31" cy="223.87" r="14" fill="none" stroke="#528bc6" stroke-miterlimit="10" stroke-width="3"/><circle cx="333.31" cy="90.87" r="14" fill="none" stroke="#528bc6" stroke-miterlimit="10" stroke-width="3"/><circle cx="151.31" cy="606.87" r="14" fill="none" stroke="#528bc6" stroke-miterlimit="10" stroke-width="3"/><circle cx="304.31" cy="634.87" r="14" fill="none" stroke="#528bc6" stroke-miterlimit="10" stroke-width="3"/><circle cx="358.31" cy="761.87" r="14" fill="none" stroke="#528bc6" stroke-miterlimit="10" stroke-width="3"/><circle cx="518.31" cy="723.87" r="14" fill="none" stroke="#528bc6" stroke-miterlimit="10" stroke-width="3"/><circle cx="625.31" cy="733.87" r="14" fill="none" stroke="#528bc6" stroke-miterlimit="10" stroke-width="3"/><circle cx="740.31" cy="637.87" r="14" fill="none" stroke="#528bc6" stroke-miterlimit="10" stroke-width="3"/><circle cx="444.51" cy="444.47" r="388" fill="none" stroke="#50bbdd" stroke-miterlimit="10" stroke-width="13"/><circle cx="444.5" cy="444.5" r="438" fill="none" stroke="#50bbdd" stroke-miterlimit="10" stroke-width="13" stroke-dasharray="49.15 49.15"/></svg>